<svg width="170" height="24" viewBox="0 0 170 24" fill="none" xmlns="http://www.w3.org/2000/svg">
<g clip-path="url(#clip0_4857_11402)">
<path d="M159.104 20.1406V22.8358C159.104 22.8358 168.373 25.3489 169.863 20.4611C170.048 19.8492 170.026 19.1973 169.917 18.5635C169.593 16.7096 167.998 15.6862 166.282 14.2366C164.399 12.6486 162.083 11.1443 162.921 9.35966C163.194 8.78055 163.886 8.27064 164.869 8.23786C167.685 8.15045 169.593 8.98451 169.593 8.98451V6.42768C169.593 6.42768 163.817 4.59565 161.038 7.02501C158.259 9.45436 160.025 12.3572 161.482 13.7121C163.583 15.6643 167.947 17.8679 166.446 20.1333C164.946 22.3988 159.104 20.1333 159.104 20.1333V20.1406Z" fill="#F89C1C"/>
<path d="M158.466 6.43127L151.892 23.1854H148.676L144.4 10.3503L140.12 23.1854H136.908L130.33 6.43127H133.568L138.718 19.5578L143.092 6.43127H145.704L150.078 19.5578L155.232 6.43127H158.466Z" fill="#F89C1C"/>
<path d="M130.33 14.1309C130.33 14.1309 130.803 5.79749 122.82 5.79749C116.063 5.79749 114.3 11.1005 114.566 15.8063C114.84 20.6795 118.952 23.5642 123.155 23.5642C127.103 23.5642 128.909 22.4934 128.909 22.4934V20.1842C128.909 20.1842 127.941 21.3242 123.774 21.3242C117.313 21.3242 117.724 14.1309 117.724 14.1309H130.33ZM122.437 7.97917C126.928 7.97917 127.154 12.2369 127.154 12.2369H117.724C117.724 12.2369 117.95 7.97917 122.437 7.97917Z" fill="#F89C1C"/>
<path d="M112.137 0.618286V22.8357C111.35 22.8357 108.863 22.8357 108.12 22.8357L95.0041 4.46081V22.8357H92.0977V0.618286H96.3335L109.227 18.833V0.618286H112.137Z" fill="#F89C1C"/>
<path d="M88.4485 0.618286H85.542V22.8357H88.4485V0.618286Z" fill="#0072B7"/>
<path d="M78.9822 13.3442C78.9822 13.3442 78.3194 14.5643 72.9726 15.6388C68.6056 16.6623 69.2758 23.5606 77.1648 20.7852L77.1502 22.8322C77.1502 22.8322 66.9957 25.3817 66.9957 18.6582C66.9957 18.6582 66.8719 14.4114 74.4076 12.9982C75.2781 12.8343 76.1304 12.5939 76.9572 12.2807C78.1809 11.8181 78.9822 11.6324 78.9822 10.1136C78.9822 8.83151 77.6601 8.2524 76.6148 8.00109C73.2166 7.1743 69.1374 8.99177 69.1374 8.99177V6.84651C69.1374 6.84651 76.6039 4.07843 80.5265 7.25443C81.3897 7.95374 81.8778 9.01362 81.8778 10.1245V22.8322H78.9859" fill="#0072B7"/>
<path d="M52.3869 6.64614V0.618286H49.4805V22.8357H52.3869V20.3081C53.5306 23.7172 65.5171 26.6382 65.6919 14.5279C65.8704 2.41754 52.3869 6.64614 52.3869 6.64614ZM52.3869 16.2033V8.87153C52.3869 8.87153 62.6179 4.94159 62.5851 14.608C62.556 24.2744 52.3869 21.6375 52.3869 16.2033Z" fill="#0072B7"/>
<path d="M38.9142 5.70642C34.0992 5.70642 30.1947 8.67846 30.1947 14.6298C29.8524 26.569 47.976 26.569 47.6336 14.6298C47.6336 8.67846 43.7292 5.70642 38.9142 5.70642ZM38.9032 21.0037C35.8948 21.0037 33.4509 19.5577 33.4509 14.6371C33.4509 9.71649 35.8948 8.27053 38.9032 8.27053C41.9117 8.27053 44.3593 9.51253 44.3593 14.6371C44.3593 19.7617 41.9154 21.0037 38.9032 21.0037Z" fill="#0072B7"/>
<path d="M27.6125 0.618286H24.7061V22.8357H27.6125V0.618286Z" fill="#0072B7"/>
<path d="M21.4391 10.4632V22.1146C21.4391 22.1146 3.03868 27.2574 0.463636 15.6279C-2.1114 3.9983 6.2511 -2.55403 20.2991 0.938848V3.91817C20.2991 3.91817 8.01757 -0.423337 4.44457 7.19252C1.51259 15.1799 5.07103 23.7682 18.5071 19.8965V12.6595H13.4153V10.4632H21.4391Z" fill="#0072B7"/>
</g>
<defs>
<clipPath id="clip0_4857_11402">
<rect width="170" height="24" fill="white"/>
</clipPath>
</defs>
</svg>
