<svg width="170" height="24" viewBox="0 0 170 24" fill="none" xmlns="http://www.w3.org/2000/svg">
<path d="M159.104 20.1405V22.8357C159.104 22.8357 168.373 25.3488 169.863 20.461C170.048 19.8491 170.026 19.1971 169.917 18.5634C169.593 16.7095 167.998 15.686 166.282 14.2365C164.399 12.6484 162.083 11.1442 162.921 9.35954C163.194 8.78043 163.886 8.27052 164.869 8.23774C167.685 8.15033 169.593 8.98439 169.593 8.98439V6.42756C169.593 6.42756 163.817 4.59553 161.038 7.02488C158.259 9.45424 160.025 12.3571 161.482 13.712C163.583 15.6642 167.947 17.8677 166.446 20.1332C164.946 22.3986 159.104 20.1332 159.104 20.1332V20.1405Z" fill="#F89C1C"/>
<path d="M158.466 6.43115L151.892 23.1853H148.676L144.4 10.3502L140.12 23.1853H136.908L130.33 6.43115H133.568L138.718 19.5577L143.092 6.43115H145.704L150.078 19.5577L155.232 6.43115H158.466Z" fill="#F89C1C"/>
<path d="M130.33 14.1307C130.33 14.1307 130.803 5.79736 122.82 5.79736C116.063 5.79736 114.3 11.1004 114.566 15.8061C114.84 20.6794 118.952 23.564 123.155 23.564C127.103 23.564 128.909 22.4932 128.909 22.4932V20.1841C128.909 20.1841 127.941 21.3241 123.774 21.3241C117.313 21.3241 117.724 14.1307 117.724 14.1307H130.33ZM122.437 7.97905C126.928 7.97905 127.154 12.2368 127.154 12.2368H117.724C117.724 12.2368 117.95 7.97905 122.437 7.97905Z" fill="#F89C1C"/>
<path d="M112.137 0.618164V22.8356C111.35 22.8356 108.863 22.8356 108.12 22.8356L95.0041 4.46069V22.8356H92.0977V0.618164H96.3335L109.227 18.8328V0.618164H112.137Z" fill="#F89C1C"/>
<path d="M88.4485 0.618164H85.542V22.8356H88.4485V0.618164Z" fill="#0072B7"/>
<path d="M78.9822 13.3442C78.9822 13.3442 78.3194 14.5643 72.9726 15.6388C68.6056 16.6623 69.2758 23.5606 77.1648 20.7852L77.1502 22.8322C77.1502 22.8322 66.9957 25.3817 66.9957 18.6582C66.9957 18.6582 66.8719 14.4114 74.4076 12.9982C75.2781 12.8343 76.1304 12.5939 76.9572 12.2807C78.1809 11.8181 78.9822 11.6324 78.9822 10.1136C78.9822 8.83151 77.6601 8.2524 76.6148 8.00109C73.2166 7.1743 69.1374 8.99177 69.1374 8.99177V6.84651C69.1374 6.84651 76.6039 4.07843 80.5265 7.25443C81.3897 7.95374 81.8778 9.01362 81.8778 10.1245V22.8322H78.9859" fill="#0072B7"/>
<path d="M52.3869 6.64602V0.618164H49.4805V22.8356H52.3869V20.3079C53.5306 23.717 65.5171 26.6381 65.6919 14.5278C65.8704 2.41741 52.3869 6.64602 52.3869 6.64602ZM52.3869 16.2032V8.8714C52.3869 8.8714 62.6179 4.94146 62.5851 14.6079C62.556 24.2743 52.3869 21.6373 52.3869 16.2032Z" fill="#0072B7"/>
<path d="M38.9142 5.70654C34.0992 5.70654 30.1947 8.67858 30.1947 14.6299C29.8524 26.5691 47.976 26.5691 47.6336 14.6299C47.6336 8.67858 43.7292 5.70654 38.9142 5.70654ZM38.9032 21.0038C35.8948 21.0038 33.4509 19.5579 33.4509 14.6372C33.4509 9.71661 35.8948 8.27066 38.9032 8.27066C41.9117 8.27066 44.3593 9.51265 44.3593 14.6372C44.3593 19.7618 41.9154 21.0038 38.9032 21.0038Z" fill="#0072B7"/>
<path d="M27.6125 0.618164H24.7061V22.8356H27.6125V0.618164Z" fill="#0072B7"/>
<path d="M21.4391 10.4632V22.1146C21.4391 22.1146 3.03868 27.2574 0.463636 15.6279C-2.1114 3.9983 6.2511 -2.55403 20.2991 0.938848V3.91817C20.2991 3.91817 8.01757 -0.423337 4.44457 7.19252C1.51259 15.1799 5.07103 23.7682 18.5071 19.8965V12.6595H13.4153V10.4632H21.4391Z" fill="#0072B7"/>
</svg>
