<svg width="270" height="270" viewBox="0 0 270 270" fill="none" xmlns="http://www.w3.org/2000/svg">
<path d="M129.359 105.231L120.694 113.758C111.966 105.21 101.868 100.93 90.4058 100.93C80.3766 100.93 72.0296 104.152 65.3593 110.589C58.6891 117.032 55.3513 125.077 55.3513 134.742C55.3513 143.194 58.5833 150.806 65.0525 157.582C71.5217 164.358 80.4401 167.744 91.8128 167.744C108.872 167.744 119.589 160.333 123.979 145.517H100.879V133.832H137.346C137.346 139.687 136.955 144.358 136.172 147.849C135.389 151.335 133.765 155.181 131.305 159.381C128.84 163.581 125.566 167.347 121.467 170.679C117.372 174.012 112.982 176.392 108.306 177.82C103.63 179.249 98.044 179.968 91.5536 179.968C76.7797 179.968 64.9943 175.329 56.1977 166.046C47.401 156.762 43 146.151 43 134.202C43 121.634 47.5015 110.928 56.4992 102.094C65.4968 93.2603 76.3988 88.8381 89.205 88.8381C96.8168 88.8381 103.767 89.9913 110.057 92.2976C116.341 94.6091 122.778 98.9149 129.359 105.231Z" fill="white"/>
<path d="M152.057 88.1029L215.315 153.123V91.5306H227V181.047L163.741 116.307V177.08H152.057V88.1029Z" fill="white"/>
</svg>
